<svg width="124" height="18" viewBox="0 0 124 18" fill="none" xmlns="http://www.w3.org/2000/svg">
<path d="M7.76019 16.56C6.15915 16.56 4.77747 16.2979 3.61515 15.7737C2.45853 15.2495 1.56685 14.506 0.940113 13.5431C0.313373 12.5802 2.57231e-06 11.4349 2.57231e-06 10.1074V10.0903C2.57231e-06 8.76844 0.313373 7.62606 0.940113 6.66316C1.56685 5.70026 2.45853 4.95672 3.61515 4.43253C4.77747 3.90835 6.15915 3.64626 7.76019 3.64626C9.14471 3.64626 10.3811 3.86562 11.4693 4.30434C12.5576 4.74305 13.435 5.36125 14.1017 6.15892C14.7683 6.95089 15.1614 7.8853 15.2811 8.96216L15.2982 9.10745H11.0848L11.0677 9.02198C10.9594 8.56617 10.7543 8.17873 10.4523 7.85966C10.156 7.5406 9.78 7.29845 9.32419 7.13321C8.86838 6.96228 8.35559 6.87682 7.78583 6.87682C7.07362 6.87682 6.46112 7.00787 5.94834 7.26996C5.44125 7.52635 5.05096 7.8967 4.77747 8.381C4.50399 8.8596 4.36724 9.42936 4.36724 10.0903V10.1074C4.36724 10.7683 4.50399 11.3409 4.77747 11.8252C5.05096 12.3095 5.4441 12.6827 5.95688 12.9448C6.46967 13.2069 7.08217 13.3379 7.79437 13.3379C8.35844 13.3379 8.86553 13.2553 9.31564 13.0901C9.76575 12.9192 10.1418 12.6742 10.4438 12.3551C10.7457 12.0303 10.9537 11.64 11.0677 11.1842L11.0848 11.0817H15.2982L15.2896 11.227C15.1643 12.3152 14.7683 13.2582 14.1017 14.0558C13.435 14.8535 12.5576 15.4717 11.4693 15.9104C10.3868 16.3434 9.15041 16.56 7.76019 16.56ZM15.9778 17.5031H33.4809V-1.59385e-06H15.9778V17.5031ZM34.8699 16.2779V3.94539H42.0233C43.6072 3.94539 44.9462 4.17899 46.0401 4.64619C47.1341 5.1134 47.9631 5.79712 48.5271 6.69734C49.0912 7.59757 49.3732 8.69722 49.3732 9.99628V10.0134C49.3732 11.3751 49.0883 12.5232 48.5186 13.4576C47.9545 14.3863 47.1255 15.09 46.0316 15.5686C44.9433 16.0415 43.6072 16.2779 42.0233 16.2779H34.8699ZM39.1602 13.1414H41.6643C42.3708 13.1414 42.9719 13.0331 43.4676 12.8166C43.9633 12.6001 44.3422 12.2696 44.6043 11.8252C44.8721 11.3751 45.006 10.7996 45.006 10.0988V10.0817C45.006 9.43221 44.8806 8.88524 44.6299 8.44082C44.3849 7.99071 44.0146 7.6517 43.5189 7.42379C43.0232 7.19589 42.405 7.08194 41.6643 7.08194H39.1602V13.1414ZM51.6681 16.2779V3.94539H63.4537V6.94519H55.9584V8.73995H62.9238V11.4064H55.9584V13.2781H63.4537V16.2779H51.6681ZM66.1588 16.2779V3.94539H71.2183L74.8249 11.8338H74.9189L78.5255 3.94539H83.5765V16.2779H79.7135V8.9878H78.1153L80.7134 6.29566L76.2436 16.2779H73.5002L69.0304 6.29566L71.62 8.9878H70.0304V16.2779H66.1588ZM93.8367 16.5685C92.2357 16.5685 90.8369 16.3064 89.6404 15.7822C88.4496 15.258 87.5266 14.5145 86.8713 13.5516C86.2161 12.583 85.8885 11.4378 85.8885 10.1159V10.0988C85.8885 8.77698 86.2161 7.63461 86.8713 6.67171C87.5266 5.70311 88.4496 4.95672 89.6404 4.43253C90.8369 3.90835 92.2357 3.64626 93.8367 3.64626C95.4491 3.64626 96.8507 3.90835 98.0415 4.43253C99.2324 4.95672 100.155 5.70311 100.811 6.67171C101.466 7.63461 101.793 8.77698 101.793 10.0988V10.1159C101.793 11.4378 101.466 12.583 100.811 13.5516C100.155 14.5145 99.2324 15.258 98.0415 15.7822C96.8507 16.3064 95.4491 16.5685 93.8367 16.5685ZM93.8367 13.3465C94.566 13.3465 95.1984 13.2154 95.734 12.9534C96.2753 12.6913 96.6912 12.3181 96.9818 11.8338C97.2781 11.3495 97.4262 10.7769 97.4262 10.1159V10.0988C97.4262 9.43791 97.2781 8.86814 96.9818 8.38954C96.6912 7.90524 96.2753 7.53205 95.734 7.26996C95.1984 7.00787 94.566 6.87682 93.8367 6.87682C93.1131 6.87682 92.4807 7.00787 91.9394 7.26996C91.4038 7.53205 90.9879 7.90524 90.6916 8.38954C90.401 8.86814 90.2557 9.43791 90.2557 10.0988V10.1159C90.2557 10.7769 90.401 11.3495 90.6916 11.8338C90.9879 12.3181 91.4038 12.6913 91.9394 12.9534C92.4807 13.2154 93.1131 13.3465 93.8367 13.3465ZM109.558 16.577C108.612 16.577 107.752 16.4631 106.977 16.2352C106.202 16.0016 105.533 15.6626 104.969 15.2182C104.41 14.768 103.977 14.2182 103.67 13.5687C103.368 12.9192 103.214 12.1756 103.208 11.3381L103.2 11.2953H107.319L107.327 11.3295C107.333 11.7682 107.43 12.1386 107.618 12.4406C107.806 12.7425 108.062 12.9733 108.387 13.1328C108.712 13.2867 109.082 13.3636 109.498 13.3636C110.171 13.3636 110.681 13.187 111.028 12.8337C111.376 12.4747 111.549 11.9734 111.549 11.3295V3.94539H115.831V11.3723C115.831 12.4434 115.589 13.3693 115.105 14.1499C114.62 14.9247 113.911 15.523 112.977 15.9446C112.048 16.3662 110.908 16.577 109.558 16.577ZM118.758 16.2779V3.94539H123.049V16.2779H118.758Z" fill="black"/>
</svg>
