<svg width="265" height="165" viewBox="0 0 265 165" fill="none" xmlns="http://www.w3.org/2000/svg">
<path d="M234.328 162.907V108.967H253.093V162.907H234.328Z" fill="white"/>
<path d="M199.022 164.028C194.885 164.028 191.122 163.53 187.733 162.533C184.369 161.511 181.453 160.028 178.986 158.085C176.544 156.116 174.65 153.711 173.304 150.87C171.959 148.029 171.273 144.777 171.249 141.114V140.927H189.228L189.266 141.077C189.315 142.995 189.739 144.615 190.537 145.936C191.359 147.257 192.48 148.266 193.901 148.964C195.321 149.637 196.953 149.973 198.798 149.973C201.713 149.973 203.931 149.201 205.451 147.656C206.996 146.11 207.769 143.918 207.769 141.077V108.967H226.459V141.226C226.459 145.911 225.4 149.961 223.281 153.375C221.188 156.789 218.098 159.418 214.011 161.262C209.924 163.106 204.928 164.028 199.022 164.028Z" fill="white"/>
<path d="M212.621 93.9358V39.9967H264.131V53.117H231.386V60.9294H261.813V72.7041H231.386V80.8155H264.131V93.9358H212.621Z" fill="white"/>
<path d="M115.251 8.21381C126.411 10.3221 131.936 19.4597 137.778 28.0932C140.009 31.3892 141.305 46.9406 141.579 51.2823C141.816 54.7816 141.905 58.2903 141.849 61.797C141.74 66.2466 141.27 70.6803 140.444 75.0534C139.642 79.3548 138.41 83.5645 136.767 87.619C130.488 102.768 113.175 123.502 94.7973 119.825C82.4419 116.856 75.3212 106.321 70.1755 95.4865C65.8237 86.3222 63.4271 76.8685 64.992 66.6764C67.4486 50.9749 76.1711 36.0399 86.3481 24.0602C93.7151 15.3878 101.641 6.21667 114.145 8.02509C114.511 8.05573 114.89 8.14562 115.251 8.21381ZM120.518 94.6766C119.676 95.299 120.367 96.0147 120.817 96.7649C111.464 100.275 103.48 102.153 93.7437 97.7868C87.6531 95.0552 85.1537 92.1849 80.5778 87.9427C81.1227 87.4769 81.8277 86.9607 82.1765 86.3632L82.1696 86.1539C81.1606 85.5567 77.3852 87.559 77.1509 88.9695C77.3072 89.4679 77.1687 89.2789 77.5282 89.5903C77.936 89.612 78.1443 89.43 78.503 89.2182C79.0153 89.1235 79.0155 89.0982 79.5117 89.1912C80.2245 89.7239 81.326 91.3063 81.9566 92.0255C82.7436 92.9214 83.482 93.7261 84.3594 94.5488C91.143 100.908 100.453 103.832 109.655 102.495C114.329 101.817 117.545 100.15 121.65 98.1804C122.137 98.7945 122.514 99.388 123.289 99.6026L123.543 99.5281C124.243 98.2247 121.608 95.2814 120.518 94.6766ZM103.201 58.6841C104.917 51.4766 103.064 42.7898 94.7018 41.3781C91.7409 41.0409 88.8151 41.8415 86.5179 43.8263C80.4514 49.0681 73.2764 61.9712 79.2182 69.5113C80.8389 71.5671 84.3173 73.3692 86.8262 73.9287C96.7527 76.0331 101.281 66.7504 103.201 58.6841ZM134.359 67.665C134.844 60.9669 132.51 49.1248 124.295 47.9612C121.753 47.7833 118.627 48.2659 116.697 50.1041C110.292 56.2047 107.871 70.6029 113.885 77.6695C115.7 79.8014 118.627 80.9221 121.291 81.2583C130.143 81.8327 133.762 75.9079 134.359 67.665Z" fill="#FEFEFE"/>
<path d="M174.437 39.9967C181.415 39.9967 187.308 41.0187 192.118 43.0621C196.952 45.0806 200.616 48.0705 203.108 52.0328C205.625 55.9701 206.883 60.8051 206.883 66.5367V66.6109C206.883 72.5168 205.625 77.5012 203.108 81.5631C200.591 85.6249 196.915 88.7022 192.081 90.7955C187.271 92.8888 181.39 93.9361 174.437 93.9361H143.487V93.6998C143.932 92.7591 144.346 91.8304 144.725 90.9166L144.723 90.9137L144.739 90.8814L144.757 90.8385L144.763 90.8199L144.762 90.8179C146.557 86.3829 147.919 81.7838 148.826 77.0865L148.829 77.0748L148.911 76.6412L148.912 76.6373C149.822 71.8106 150.34 66.9161 150.461 62.0054V61.9888L150.462 61.9469L150.461 61.9244L150.471 61.2418V61.231C150.507 57.953 150.424 54.6728 150.219 51.4L150.217 51.3892L150.174 50.7076C150.045 48.6704 149.714 44.4361 149.182 39.9967H174.437ZM162.252 80.2174H173.204C176.269 80.2174 178.885 79.7443 181.053 78.7974C183.246 77.8505 184.916 76.4043 186.062 74.4605C187.208 72.4919 187.782 69.9748 187.782 66.9097V66.8355C187.782 63.9697 187.234 61.5644 186.137 59.6207C185.066 57.6771 183.446 56.2073 181.278 55.2105C179.11 54.2137 176.418 53.7154 173.204 53.7154H162.252V80.2174Z" fill="white"/>
<path d="M134.731 107.854C141.414 107.946 147.25 109.088 152.24 111.285C157.448 113.553 161.486 116.792 164.351 121.004C167.217 125.19 168.65 130.149 168.65 135.881V135.956C168.65 141.687 167.217 146.659 164.351 150.87C161.486 155.056 157.448 158.296 152.24 160.589C147.057 162.856 140.927 163.99 133.849 163.99C126.797 163.99 120.654 162.856 115.421 160.589C110.213 158.296 106.188 155.056 103.347 150.87C100.507 146.659 99.0857 141.687 99.0857 135.956V135.881C99.0857 133.396 99.3527 131.057 99.8865 128.863C110.129 128.626 119.196 123.333 126.057 117.206C129.228 114.374 132.14 111.187 134.731 107.854ZM133.849 121.975C130.635 121.975 127.856 122.537 125.513 123.658C123.171 124.779 121.352 126.386 120.056 128.479C118.786 130.548 118.15 133.015 118.15 135.881V135.956C118.15 138.822 118.786 141.301 120.056 143.394C121.352 145.487 123.171 147.095 125.513 148.217C127.856 149.338 130.635 149.898 133.849 149.898C137.064 149.898 139.843 149.338 142.185 148.217C144.528 147.095 146.334 145.488 147.605 143.394C148.901 141.301 149.549 138.822 149.549 135.956V135.881C149.549 133.015 148.901 130.548 147.605 128.479C146.334 126.386 144.515 124.779 142.147 123.658C139.805 122.537 137.039 121.975 133.849 121.975Z" fill="white"/>
<path d="M54.9592 142.833H55.219L69.7864 111.925C75.075 119.194 82.3562 125.691 92.7854 128.198L92.7893 128.199L92.8831 128.224L92.9446 128.237L93.0061 128.25L93.1008 128.268L93.1086 128.27C93.2004 128.289 93.2924 128.305 93.384 128.322V162.907H76.4895V131.358H75.7991L61.052 162.907H49.0901L34.3411 131.358H33.6887V162.907H16.7561V108.968H38.9592L54.9592 142.833Z" fill="white"/>
<path d="M33.8662 38.8749C39.9964 38.8749 45.4537 39.8472 50.2383 41.7909C54.6114 43.5582 58.1889 45.9872 60.9756 49.0731C59.2247 53.5215 57.8353 58.123 56.9209 62.8358H48.4072L48.3691 62.4618C47.8707 60.4682 46.9735 58.7611 45.6777 57.3407C44.4069 55.9204 42.7747 54.8485 40.7812 54.1258C38.8126 53.3783 36.5574 53.0047 34.0156 53.0047C30.9257 53.0048 28.2593 53.5651 26.0166 54.6864C23.7738 55.7829 22.0546 57.3783 20.8584 59.4715C19.6622 61.5399 19.0635 64.0071 19.0635 66.8729V66.9471C19.0635 69.8129 19.6623 72.2923 20.8584 74.3856C22.0546 76.4789 23.7738 78.0865 26.0166 79.2079C28.2593 80.3292 30.9379 80.8904 34.0527 80.8905C36.5198 80.8905 38.7384 80.5292 40.707 79.8065C42.7006 79.0589 44.357 77.974 45.6777 76.5536C46.9985 75.1083 47.8957 73.3767 48.3691 71.3583L48.4443 70.9471H55.9404C55.7052 76.7696 56.5037 82.3155 57.9863 87.5965C55.761 89.3903 53.1791 90.8943 50.2383 92.1044C45.4538 94.048 39.9963 95.0194 33.8662 95.0194C26.9136 95.0194 20.8952 93.8857 15.8115 91.618C10.7529 89.3503 6.85249 86.1229 4.11133 81.9364C1.37032 77.7499 0 72.7533 0 66.9471V66.8729C0 61.0667 1.37026 56.0823 4.11133 51.9208C6.85252 47.7342 10.7528 44.519 15.8115 42.2762C20.8952 40.0085 26.9136 38.8749 33.8662 38.8749Z" fill="white"/>
</svg>
