<svg width="124" height="32" viewBox="0 0 124 32" fill="none" xmlns="http://www.w3.org/2000/svg">
<path d="M25.9257 0.0072648C31.1234 -0.17479 34.6131 3.09154 36.3332 6.80119C36.5108 6.76413 36.6932 6.74389 36.878 6.74389H43.2818C45.1506 6.7439 46.9009 7.01501 48.4413 7.66944C48.8946 7.85958 49.325 8.08228 49.7315 8.33612C50.1447 7.39836 51.0821 6.74342 52.1727 6.74337H64.1657C64.4438 6.74337 64.7121 6.78625 64.9642 6.86525C65.2164 6.78617 65.4848 6.74337 65.7631 6.74337H70.9325C71.9641 6.74337 72.9034 7.33837 73.3441 8.27102L74.6852 11.1112L76.0233 8.27362L76.1113 8.10226C76.581 7.26729 77.4675 6.74341 78.4353 6.74337H83.6053C84.7151 6.74341 85.6663 7.42172 86.0678 8.38612C86.4806 8.10754 86.9184 7.85909 87.3793 7.64131L87.6798 7.50485C89.2996 6.79382 91.1052 6.48295 93.0269 6.48295L93.3868 6.4866C95.1739 6.5235 96.8548 6.83857 98.3728 7.50485C99.9925 8.2101 101.351 9.26948 102.333 10.7127C103.056 11.7709 103.494 12.9428 103.684 14.1852H105.921C106.537 14.1852 107.113 14.3964 107.571 14.7571V9.41011C107.571 7.93743 108.765 6.74342 110.238 6.74337H114.589C114.911 6.74337 115.22 6.8004 115.506 6.90484C115.791 6.80034 116.1 6.74338 116.422 6.74337H120.791C122.263 6.74337 123.457 7.9374 123.457 9.41011V21.9693C123.457 23.4421 122.263 24.636 120.791 24.636H116.422C115.424 24.636 114.555 24.0878 114.098 23.2766C113.689 23.5607 113.251 23.808 112.788 24.0173C111.4 24.6432 109.84 24.897 108.201 24.897C107.026 24.897 105.892 24.7558 104.82 24.4407C104.813 24.4385 104.805 24.4362 104.797 24.4339C103.734 24.1109 102.75 23.6221 101.885 22.9412C101.878 22.9351 101.87 22.9286 101.862 22.9224C101.568 22.6851 101.295 22.4287 101.044 22.1547C100.273 22.8632 99.3773 23.4333 98.3832 23.8709L98.3775 23.873C96.8616 24.5362 95.1784 24.8485 93.3868 24.885L93.0269 24.8886C91.1039 24.8886 89.2979 24.5796 87.6757 23.8766C87.671 23.8746 87.6662 23.8729 87.6616 23.8709C87.0964 23.6221 86.5639 23.3289 86.0673 22.9933C85.6657 23.9576 84.7151 24.636 83.6053 24.636H79.6713C78.9781 24.636 78.3465 24.3716 77.8723 23.9381C77.3898 24.378 76.7537 24.636 76.0764 24.636H73.2915C72.6162 24.636 71.9817 24.3798 71.4997 23.9422C71.0261 24.3732 70.3967 24.636 69.7059 24.636H65.7631C65.4848 24.636 65.2164 24.5932 64.9642 24.5141C64.7121 24.5931 64.4438 24.636 64.1657 24.636H52.1727C51.0706 24.636 50.1248 23.9673 49.7185 23.0136C49.3189 23.2678 48.8957 23.4929 48.4497 23.686L48.4492 23.6855C46.9046 24.3567 45.1516 24.6365 43.2818 24.6365H36.6025C36.3964 24.6365 36.1934 24.6121 35.9968 24.5662C35.9561 24.6432 35.9189 24.7145 35.8853 24.7787C34.785 26.8821 32.9076 29.0146 30.4628 30.2164C30.1507 30.6503 29.7509 31.0477 29.2466 31.3627C28.1561 32.044 26.896 32.1458 25.7267 31.8263C24.7906 31.5703 24.1076 31.0514 23.6183 30.5148C22.4342 30.1156 21.3948 29.3157 20.6688 28.6601C19.8475 27.9184 19.1061 27.0659 18.5979 26.3376C18.5921 26.3295 18.5864 26.3213 18.5807 26.3131C18.5782 26.3095 18.5754 26.3058 18.5729 26.3022C18.1969 25.7692 17.94 25.2363 17.7557 24.822C17.5152 24.2813 17.4731 24.1422 17.3098 23.7995C17.2096 23.5892 17.1132 23.3758 17.0197 23.1599C16.5053 23.489 15.9567 23.7712 15.379 24.0089C15.3754 24.0104 15.3717 24.0121 15.3681 24.0136C13.8819 24.6174 12.2607 24.8886 10.5524 24.8886C8.64956 24.8886 6.8614 24.5785 5.26211 23.8652L5.25743 23.8636C3.66622 23.1503 2.34031 22.0827 1.39326 20.6364C0.488023 19.2539 0.0557689 17.6822 0.00520847 16.0197L0 15.6858V15.6686C8.65614e-07 13.8831 0.427652 12.1924 1.39743 10.72C2.34503 9.27557 3.67108 8.21236 5.26211 7.50589L5.5642 7.37724C7.08541 6.75537 8.76846 6.48295 10.5524 6.48295C12.2601 6.48299 13.8814 6.75347 15.3681 7.35745C15.8293 7.54408 16.2719 7.75904 16.6937 8.00434C17.3226 6.15756 18.284 4.38186 19.7302 2.83963C21.3987 1.06048 23.4173 0.142848 25.8741 0.00934819C25.8912 0.0084202 25.9086 0.00786378 25.9257 0.0072648Z" fill="black"/>
<path d="M27.6166 23.8975C28.0841 23.8568 28.462 24.112 28.6767 24.4838C28.7866 24.6708 28.8596 24.875 28.8917 25.0862C28.9576 25.5415 28.8861 25.9657 28.8502 26.4104C28.8236 26.968 28.7899 27.4353 28.6263 27.9797C28.3295 28.9677 27.542 29.5578 26.4296 29.2539C25.8482 29.095 25.4575 28.6386 25.185 28.1478C24.7662 27.3842 24.6758 26.5042 24.5826 25.6649C24.5377 25.2602 24.6205 24.6789 24.9128 24.3551C25.0982 24.15 25.3542 24.0444 25.6371 24.0228C25.9207 24.0013 26.0206 24.0784 26.1904 24.1464C26.9538 24.4522 26.6193 25.5856 26.8546 25.7763L26.894 25.7691C27.1068 25.5864 26.9505 24.6615 26.8678 24.4144C27.0716 24.1547 27.2636 23.9602 27.6166 23.8975Z" fill="white"/>
<path d="M23.0861 12.6746C23.6657 12.7924 24.175 13.1093 24.2914 13.7024C24.3282 13.89 24.2104 14.0567 24.0924 14.1986C23.8097 14.4401 23.561 14.4142 23.2089 14.3878C23.1816 14.2145 23.1697 13.9126 23.1568 13.7304C23.1303 13.3786 23.1069 13.0266 23.0861 12.6746Z" fill="white"/>
<path d="M22.0706 9.32687C22.0929 9.36949 22.1522 11.5352 22.1616 11.7631C21.7759 11.7612 21.5686 11.6532 21.2743 11.4329C20.7402 10.9857 20.6775 10.4886 21.0779 9.92462C21.3163 9.58897 21.6498 9.40209 22.0706 9.32687Z" fill="white"/>
<path d="M30.6456 12.6733C31.2208 12.7875 31.7378 13.102 31.8588 13.6885C31.8984 13.8806 31.7894 14.0428 31.6696 14.1897C31.3789 14.4478 31.1269 14.4116 30.7637 14.384C30.7482 13.8588 30.6852 13.2026 30.6456 12.6733Z" fill="white"/>
<path d="M29.6338 9.32603C29.661 9.40526 29.6703 10.0029 29.6744 10.1308L29.7308 11.7627C29.3469 11.7586 29.1289 11.6542 28.8379 11.4258C27.9039 10.6781 28.5904 9.52114 29.6338 9.32603Z" fill="white"/>
<path fill-rule="evenodd" clip-rule="evenodd" d="M26.019 2.6721C30.2394 2.52427 33.0757 5.42212 34.3112 8.89296C34.4629 9.31908 34.6479 9.65154 34.7659 10.1138C35.7496 13.9716 35.5413 17.9675 34.3434 21.761C34.1518 22.3672 33.8201 22.9738 33.5225 23.5428C32.6202 25.2678 31.0962 26.952 29.235 27.8493C29.3312 27.1797 29.3638 26.2989 29.2774 25.6306C29.7934 25.365 30.1043 25.146 30.5245 24.7463C31.9935 23.349 33.3327 20.4665 33.2867 18.5144C33.0487 18.8073 32.7102 19.0897 32.3888 19.3027C30.9888 20.2308 29.1938 20.8338 27.4748 20.8838C25.1462 20.8959 22.4119 20.4306 20.5356 19.0432C20.4349 18.9687 20.3201 18.9339 20.2003 18.8882L20.1673 18.9107C20.0532 19.1473 20.1415 19.651 20.2037 19.8945C20.7726 22.1203 22.0771 24.4348 24.1864 25.6819C24.191 25.8411 24.222 26.0263 24.2338 26.1886C24.2814 26.8461 24.3789 27.4003 24.5974 28.028C23.2235 27.6415 21.5382 25.9023 20.7667 24.7861C20.2967 24.1294 20.0544 23.3594 19.7173 22.6521C18.952 21.0464 18.4349 19.3202 18.3342 17.5433C18.0879 13.1893 18.4553 8.098 21.6756 4.66388C22.8606 3.40033 24.2274 2.76942 26.019 2.6721ZM22.9549 6.63406C22.7539 6.63324 22.4929 6.62627 22.2979 6.63957C22.194 6.64565 22.1055 6.65057 22.0011 6.64973C22.0075 7.02289 22.018 7.39608 22.0333 7.76902C21.1526 8.07896 20.4131 8.62151 20.0034 9.43271C19.5331 10.3642 19.8608 11.7999 20.9623 12.2098C21.3631 12.359 21.7757 12.4574 22.1895 12.5446L22.2031 14.4119L20.9559 14.4246C20.9546 14.9014 20.9438 15.3817 20.9483 15.8572C21.3685 15.8575 21.8846 15.8208 22.286 15.836C22.2966 16.1314 22.3049 16.4274 22.3102 16.7229L23.1403 16.6899C23.1261 16.4928 23.12 16.3084 23.1149 16.1112C23.1088 16.0116 23.1011 15.9069 23.0988 15.8077C23.507 15.8082 24.0217 15.7558 24.3913 15.5799C25.7472 14.934 25.7 13.4302 24.7122 12.4976C24.2334 12.0458 23.7257 11.9337 23.0849 11.8398C23.0713 11.0137 23.0317 10.111 23.0358 9.29047C23.7353 9.28495 24.0623 9.35698 24.644 9.74724L24.6719 7.75039C24.0168 7.60724 23.6455 7.58997 22.9786 7.59164C22.9697 7.27781 22.9693 6.9453 22.9549 6.63406ZM30.5258 6.63322C30.3933 6.63252 29.9785 6.6231 29.8637 6.63872C29.7591 6.64478 29.6698 6.64967 29.5648 6.64888C29.5762 7.01577 29.582 7.40226 29.605 7.76732C28.724 8.08318 27.9837 8.60815 27.5751 9.42678C27.1051 10.3692 27.4279 11.7988 28.5408 12.2123C28.9333 12.358 29.3457 12.4576 29.7515 12.5446C29.7608 13.1669 29.7657 13.7896 29.7663 14.4119C29.3626 14.4149 28.9253 14.4276 28.5251 14.4234L28.5192 15.8572C28.9529 15.8561 29.4269 15.8253 29.8514 15.8347C29.8581 16.1269 29.8711 16.4316 29.8738 16.7225C30.1458 16.7112 30.437 16.6939 30.7074 16.6886L30.6832 16.1243C30.678 16.0203 30.671 15.9108 30.6684 15.8072C31.6716 15.8093 32.6279 15.4808 32.9506 14.4924C33.1716 13.8144 32.7898 12.967 32.2758 12.4904C31.8013 12.0506 31.2808 11.9297 30.6481 11.8398L30.6109 9.28962C31.2841 9.2843 31.6557 9.35988 32.2136 9.74894C32.2226 9.09132 32.2478 8.40433 32.2466 7.75039C31.5822 7.60567 31.2246 7.58978 30.5486 7.59122C30.5424 7.27909 30.5261 6.94149 30.5258 6.63322Z" fill="white"/>
<path d="M24.1178 20.8178C24.8323 20.9598 25.3127 21.051 26.0376 21.1289C25.8842 21.431 25.7085 21.743 25.5084 22.0196C25.2632 22.3586 25.0568 22.5242 24.6017 22.4971C24.1038 22.1996 24.1383 21.3178 24.1178 20.8178Z" fill="white"/>
<path d="M28.9315 20.9731C28.8184 21.3458 28.5923 21.8932 28.3443 22.2C28.2036 22.3739 27.8338 22.112 27.7204 21.9917C27.5414 21.7583 27.4745 21.4503 27.4177 21.1738C27.918 21.1292 28.429 21.0323 28.9243 20.9456L28.9315 20.9731Z" fill="white"/>
<path d="M114.59 16.9214C114.59 18.0123 114.343 18.9552 113.85 19.7501C113.362 20.545 112.643 21.1572 111.691 21.5866C110.74 22.0159 109.576 22.2304 108.201 22.2304C107.238 22.2304 106.362 22.1145 105.573 21.8825C104.789 21.6446 104.11 21.2991 103.536 20.8466C102.967 20.3882 102.526 19.8282 102.213 19.1668C101.9 18.5054 101.741 17.7481 101.735 16.8952V16.852H105.921L105.93 16.8867C105.941 17.3335 106.04 17.7108 106.225 18.0183C106.417 18.3257 106.678 18.5607 107.009 18.7231C107.339 18.8798 107.72 18.9581 108.149 18.9581C108.828 18.9581 109.344 18.7781 109.698 18.4183C110.058 18.0586 110.238 17.5481 110.238 16.8867V9.41027H114.59V16.9214Z" fill="white"/>
<path d="M10.5521 9.1495C11.9794 9.14951 13.2502 9.37554 14.3642 9.8281C15.1496 10.1455 15.8247 10.5549 16.3903 11.0549C16.1811 12.297 16.0845 13.5371 16.058 14.7282H13.9375L13.9291 14.6414C13.813 14.1772 13.6038 13.7796 13.3021 13.4489C13.0062 13.1182 12.6262 12.8686 12.1621 12.7004C11.7037 12.5264 11.1786 12.4392 10.5869 12.4392C9.86738 12.4392 9.2464 12.5697 8.7242 12.8308C8.20202 13.0861 7.80171 13.4576 7.52321 13.945C7.24472 14.4266 7.10538 15.0012 7.10538 15.6684V15.6857C7.1054 16.3529 7.24474 16.9302 7.52321 17.4176C7.80169 17.9049 8.20208 18.2792 8.7242 18.5403C9.24635 18.8013 9.87014 18.9318 10.5953 18.9318C11.1697 18.9318 11.6863 18.8478 12.1447 18.6795C12.6088 18.5055 12.9946 18.2532 13.3021 17.9226C13.6096 17.5861 13.8188 17.1827 13.9291 16.7127L13.9464 16.6171H16.069C16.0805 16.9757 16.0962 17.3268 16.1156 17.6686C16.1648 18.5371 16.2978 19.3865 16.4953 20.2107C15.9085 20.7555 15.1982 21.1998 14.3642 21.5429C13.2503 21.9955 11.9794 22.222 10.5521 22.222C8.9334 22.222 7.53208 21.9579 6.34846 21.4299C5.17065 20.9019 4.26257 20.1504 3.62432 19.1757C2.9861 18.2009 2.66677 17.0376 2.66675 15.6857V15.6684C2.66675 14.3165 2.9861 13.1559 3.62432 12.1869C4.26256 11.2122 5.17066 10.4637 6.34846 9.94155C7.5321 9.41358 8.93337 9.1495 10.5521 9.1495Z" fill="white"/>
<path fill-rule="evenodd" clip-rule="evenodd" d="M93.0268 9.1495C94.6688 9.14952 96.0962 9.41623 97.3088 9.95002C98.5215 10.478 99.4614 11.2326 100.129 12.2131C100.796 13.1879 101.129 14.3424 101.129 15.6768V15.6942C101.129 17.0287 100.796 18.1862 100.129 19.1668C99.4614 20.1416 98.5215 20.8961 97.3088 21.4299C96.102 21.9579 94.6746 22.222 93.0268 22.222C91.3848 22.222 89.9544 21.9579 88.736 21.4299C87.5233 20.8961 86.5861 20.1416 85.9246 19.1668C85.2632 18.1862 84.9327 17.0286 84.9327 15.6942V15.6768C84.9328 14.3424 85.2633 13.1879 85.9246 12.2131C86.5919 11.2326 87.5318 10.478 88.7444 9.95002C89.9571 9.41621 91.3848 9.1495 93.0268 9.1495ZM93.0268 12.4392C92.2784 12.4392 91.6313 12.5697 91.0859 12.8308C90.5405 13.0919 90.1167 13.4661 89.815 13.9535C89.5191 14.435 89.3714 15.0096 89.3714 15.6768V15.6942C89.3714 16.3615 89.5191 16.9391 89.815 17.4265C90.1167 17.9138 90.5405 18.2881 91.0859 18.5491C91.6313 18.8102 92.2784 18.9407 93.0268 18.9407C93.7752 18.9407 94.4221 18.8102 94.9674 18.5491C95.5127 18.2881 95.9334 17.9138 96.2293 17.4265C96.5311 16.9391 96.6819 16.3615 96.6819 15.6942V15.6768C96.6819 15.0096 96.5311 14.435 96.2293 13.9535C95.9334 13.4662 95.51 13.0919 94.9589 12.8308C94.4136 12.5697 93.7695 12.4392 93.0268 12.4392Z" fill="white"/>
<path d="M21.4881 20.0727C22.0779 20.2715 22.6747 20.4517 23.2775 20.6129C23.1592 21.0199 23.0515 21.3915 22.8753 21.7796C22.8522 21.826 22.8283 21.8726 22.8038 21.9184C22.5943 22.3062 22.3403 22.0136 22.1806 21.7838C21.8144 21.2568 21.6135 20.685 21.4881 20.0727Z" fill="white"/>
<path fill-rule="evenodd" clip-rule="evenodd" d="M43.282 9.41069C44.9065 9.4107 46.2787 9.64829 47.3985 10.124C48.5241 10.594 49.3773 11.2906 49.9575 12.2131C50.5435 13.1299 50.8364 14.2556 50.8364 15.5901V15.6074C50.8363 16.9825 50.5435 18.1432 49.9575 19.0889C49.3715 20.0346 48.5156 20.7512 47.39 21.2386C46.2702 21.7259 44.9008 21.9697 43.282 21.9697H36.6027C37.7891 17.9525 37.9741 13.7003 36.9193 9.56394C36.906 9.51154 36.892 9.46042 36.8779 9.41069H43.282ZM40.4444 18.7752H42.9946C43.7082 18.7752 44.3177 18.6651 44.8225 18.4446C45.333 18.2241 45.7219 17.8875 45.9888 17.4349C46.2556 16.9766 46.3888 16.3904 46.3888 15.6768V15.6595C46.3888 14.9923 46.2614 14.4323 46.0062 13.9797C45.7567 13.5272 45.3793 13.1848 44.8746 12.9527C44.3698 12.7206 43.743 12.6047 42.9946 12.6047H40.4444V18.7752Z" fill="white"/>
<path d="M64.1658 12.4655H56.5416V14.2845H63.6261V17.026H56.5416V18.9145H64.1658V21.9692H52.1728V9.41027H64.1658V12.4655Z" fill="white"/>
<path d="M74.6581 17.2957H74.719L78.4355 9.41027H83.6052V21.9692H79.6712V14.6236H79.5103L76.0767 21.9692H73.2916L69.8579 14.6236H69.7059V21.9692H65.763V9.41027H70.9328L74.6581 17.2957Z" fill="white"/>
<path d="M120.791 21.9692H116.422V9.41027H120.791V21.9692Z" fill="white"/>
<path d="M31.5553 20.2264C31.6388 20.2885 31.0974 21.3064 31.0181 21.4003C30.7946 21.6648 30.7212 21.6013 30.5232 21.3321C30.3803 21.0733 30.3291 20.9071 30.2362 20.6311C30.6698 20.5108 31.1349 20.3804 31.5553 20.2264Z" fill="white"/>
</svg>
