<svg width="119" height="27" viewBox="0 0 119 27" fill="none" xmlns="http://www.w3.org/2000/svg">
<path d="M24.9499 21.2308C25.4174 21.1901 25.7953 21.4453 26.0099 21.8171C26.1198 22.0041 26.1928 22.2083 26.225 22.4195C26.2908 22.8748 26.2194 23.299 26.1835 23.7437C26.1569 24.3013 26.1232 24.7686 25.9595 25.313C25.6627 26.301 24.8753 26.8911 23.7629 26.5872C23.1815 26.4283 22.7907 25.972 22.5183 25.4811C22.0995 24.7175 22.009 23.8375 21.9159 22.9982C21.871 22.5936 21.9537 22.0122 22.2461 21.6885C22.4315 21.4833 22.6874 21.3777 22.9704 21.3561C23.254 21.3346 23.3539 21.4118 23.5237 21.4797C24.287 21.7855 23.9525 22.9189 24.1879 23.1096L24.2273 23.1024C24.4401 22.9198 24.2837 21.9948 24.201 21.7477C24.4049 21.488 24.5969 21.2935 24.9499 21.2308Z" fill="white"/>
<path d="M20.4194 10.0079C20.999 10.1257 21.5082 10.4426 21.6246 11.0357C21.6614 11.2233 21.5437 11.39 21.4257 11.5319C21.1429 11.7734 20.8942 11.7475 20.5422 11.7211C20.5149 11.5479 20.5029 11.2459 20.4901 11.0637C20.4636 10.7119 20.4402 10.3599 20.4194 10.0079Z" fill="white"/>
<path d="M19.4038 6.66019C19.4262 6.7028 19.4854 8.86851 19.4948 9.09646C19.1091 9.09453 18.9018 8.98656 18.6075 8.76626C18.0735 8.31897 18.0107 7.82188 18.4111 7.25793C18.6495 6.92228 18.983 6.73541 19.4038 6.66019Z" fill="white"/>
<path d="M27.9788 10.0066C28.5541 10.1208 29.071 10.4353 29.1921 11.0218C29.2317 11.2139 29.1226 11.3761 29.0029 11.523C28.7121 11.7811 28.4601 11.7449 28.0969 11.7173C28.0814 11.1922 28.0185 10.5359 27.9788 10.0066Z" fill="white"/>
<path d="M26.9671 6.65934C26.9942 6.73857 27.0035 7.33625 27.0077 7.46409L27.064 9.09604C26.6801 9.09194 26.4621 8.98749 26.1712 8.75906C25.2372 8.01144 25.9236 6.85446 26.9671 6.65934Z" fill="white"/>
<path fill-rule="evenodd" clip-rule="evenodd" d="M23.3522 0.00541798C27.5727 -0.142421 30.409 2.75544 31.6444 6.22627C31.7961 6.6524 31.9812 6.98486 32.0991 7.44716C33.0829 11.3049 32.8746 15.3008 31.6766 19.0943C31.4851 19.7005 31.1534 20.3071 30.8558 20.8761C29.9534 22.6011 28.4295 24.2854 26.5683 25.1826C26.6645 24.513 26.6971 23.6322 26.6106 22.9639C27.1266 22.6983 27.4375 22.4793 27.8577 22.0796C29.3267 20.6823 30.666 17.7998 30.62 15.8477C30.3819 16.1406 30.0434 16.423 29.7221 16.636C28.322 17.5641 26.5271 18.1671 24.8081 18.2171C22.4795 18.2292 19.7451 17.7639 17.8688 16.3765C17.7681 16.3021 17.6533 16.2672 17.5335 16.2215L17.5005 16.244C17.3865 16.4806 17.4747 16.9843 17.5369 17.2278C18.1059 19.4536 19.4103 21.7681 21.5196 23.0152C21.5243 23.1744 21.5553 23.3596 21.567 23.5219C21.6146 24.1794 21.7121 24.7336 21.9307 25.3613C20.5568 24.9748 18.8715 23.2357 18.1 22.1194C17.63 21.4627 17.3876 20.6927 17.0505 19.9854C16.2852 18.3797 15.7681 16.6535 15.6675 14.8766C15.4211 10.5226 15.7885 5.43131 19.0089 1.99719C20.1938 0.733645 21.5606 0.102732 23.3522 0.00541798ZM20.2882 3.96738C20.0872 3.96655 19.8262 3.95958 19.6311 3.97288C19.5273 3.97896 19.4388 3.98389 19.3344 3.98304C19.3408 4.3562 19.3512 4.72939 19.3666 5.10233C18.4858 5.41228 17.7464 5.95482 17.3367 6.76602C16.8664 7.69753 17.194 9.13319 18.2955 9.54307C18.6964 9.69235 19.1089 9.79072 19.5228 9.87793L19.5363 11.7452L18.2892 11.7579C18.2879 12.2347 18.277 12.7151 18.2816 13.1905C18.7017 13.1909 19.2179 13.1541 19.6193 13.1693C19.6298 13.4647 19.6382 13.7607 19.6434 14.0562L20.4736 14.0232C20.4593 13.8261 20.4532 13.6418 20.4482 13.4445C20.4421 13.3449 20.4343 13.2403 20.4321 13.141C20.8403 13.1416 21.355 13.0892 21.7245 12.9132C23.0804 12.2673 23.0333 10.7636 22.0454 9.83094C21.5667 9.37907 21.0589 9.26704 20.4181 9.17308C20.4046 8.34698 20.3649 7.44427 20.369 6.62378C21.0685 6.61826 21.3956 6.69029 21.9773 7.08056L22.0052 5.0837C21.35 4.94055 20.9788 4.92328 20.3119 4.92495C20.303 4.61113 20.3026 4.27861 20.2882 3.96738ZM27.859 3.96653C27.7265 3.96584 27.3117 3.95641 27.1969 3.97203C27.0924 3.97809 27.003 3.98299 26.8981 3.98219C26.9094 4.34908 26.9152 4.73557 26.9383 5.10064C26.0572 5.4165 25.317 5.94146 24.9084 6.76009C24.4384 7.70251 24.7612 9.13215 25.874 9.54561C26.2666 9.6913 26.6789 9.7909 27.0847 9.87793C27.0941 10.5002 27.099 11.1229 27.0996 11.7452C26.6958 11.7483 26.2586 11.7609 25.8584 11.7567L25.8524 13.1905C26.2862 13.1894 26.7601 13.1586 27.1847 13.1681C27.1914 13.4602 27.2044 13.7649 27.2071 14.0558C27.479 14.0445 27.7703 14.0273 28.0406 14.0219L28.0165 13.4576C28.0113 13.3536 28.0043 13.2441 28.0017 13.1405C29.0049 13.1426 29.9612 12.8142 30.2839 11.8257C30.5049 11.1477 30.1231 10.3003 29.6091 9.82374C29.1346 9.38392 28.6141 9.26302 27.9814 9.17308L27.9441 6.62293C28.6173 6.61761 28.989 6.69319 29.5468 7.08225C29.5559 6.42463 29.5811 5.73764 29.5799 5.0837C28.9155 4.93898 28.5579 4.92309 27.8819 4.92453C27.8757 4.61241 27.8594 4.2748 27.859 3.96653Z" fill="white"/>
<path d="M21.4511 18.1511C22.1656 18.2932 22.6459 18.3843 23.3709 18.4622C23.2175 18.7643 23.0418 19.0763 22.8417 19.3529C22.5965 19.6919 22.3901 19.8576 21.9349 19.8305C21.437 19.5329 21.4715 18.6511 21.4511 18.1511Z" fill="white"/>
<path d="M26.2648 18.3065C26.1516 18.6791 25.9256 19.2265 25.6776 19.5333C25.5369 19.7072 25.1671 19.4453 25.0536 19.325C24.8747 19.0916 24.8078 18.7836 24.7509 18.5071C25.2513 18.4626 25.7623 18.3656 26.2576 18.2789L26.2648 18.3065Z" fill="white"/>
<path d="M111.923 14.2548C111.923 15.3456 111.676 16.2885 111.183 17.0835C110.696 17.8783 109.976 18.4905 109.024 18.9199C108.073 19.3492 106.909 19.5638 105.534 19.5638C104.571 19.5637 103.695 19.4479 102.906 19.2158C102.123 18.9779 101.444 18.6325 100.869 18.1799C100.301 17.7215 99.8597 17.1615 99.5464 16.5001C99.2331 15.8387 99.0738 15.0814 99.068 14.2285V14.1853H103.254L103.263 14.22C103.274 14.6668 103.373 15.0441 103.559 15.3516C103.75 15.659 104.011 15.894 104.342 16.0564C104.673 16.2131 105.053 16.2914 105.482 16.2914C106.161 16.2914 106.677 16.1114 107.031 15.7517C107.391 15.3919 107.571 14.8815 107.571 14.22V6.74358H111.923V14.2548Z" fill="white"/>
<path d="M7.8854 6.48281C9.31269 6.48283 10.5835 6.70885 11.6975 7.16141C12.4829 7.47882 13.1579 7.88817 13.7236 8.38823C13.5144 9.63031 13.4178 10.8704 13.3912 12.0615H11.2708L11.2623 11.9747C11.1463 11.5105 10.937 11.1129 10.6354 10.7822C10.3395 10.4515 9.95944 10.202 9.49532 10.0337C9.03697 9.85967 8.5119 9.77252 7.92011 9.77252C7.20063 9.77252 6.57965 9.903 6.05745 10.1641C5.53527 10.4194 5.13496 10.7909 4.85646 11.2783C4.57798 11.7599 4.43863 12.3345 4.43863 13.0017V13.019C4.43865 13.6862 4.57799 14.2636 4.85646 14.7509C5.13494 15.2382 5.53534 15.6125 6.05745 15.8736C6.5796 16.1346 7.2034 16.2651 7.92858 16.2652C8.50299 16.2652 9.0196 16.1811 9.47797 16.0128C9.94203 15.8388 10.3279 15.5865 10.6354 15.2559C10.9429 14.9194 11.1521 14.516 11.2623 14.0461L11.2797 13.9504H13.4023C13.4137 14.309 13.4295 14.6601 13.4488 15.0019C13.498 15.8704 13.631 16.7198 13.8285 17.544C13.2417 18.0888 12.5315 18.5331 11.6975 18.8763C10.5835 19.3288 9.31268 19.5553 7.8854 19.5553C6.26665 19.5553 4.86533 19.2912 3.68171 18.7632C2.5039 18.2352 1.59582 17.4837 0.957576 16.509C0.31935 15.5342 2.19977e-05 14.3709 0 13.019V13.0017C0 11.6498 0.319354 10.4892 0.957576 9.52022C1.59581 8.5455 2.50392 7.79705 3.68171 7.27486C4.86535 6.7469 6.26662 6.48281 7.8854 6.48281Z" fill="white"/>
<path fill-rule="evenodd" clip-rule="evenodd" d="M90.3601 6.48281C92.0021 6.48283 93.4295 6.74954 94.6421 7.28333C95.8547 7.81133 96.7947 8.5659 97.4619 9.54646C98.1291 10.5212 98.4627 11.6757 98.4627 13.0102V13.0275C98.4627 14.362 98.1291 15.5195 97.4619 16.5001C96.7947 17.4749 95.8547 18.2294 94.6421 18.7632C93.4353 19.2912 92.0079 19.5553 90.3601 19.5553C88.7181 19.5553 87.2877 19.2912 86.0692 18.7632C84.8565 18.2294 83.9193 17.4749 83.2579 16.5001C82.5965 15.5196 82.266 14.362 82.266 13.0275V13.0102C82.266 11.6757 82.5965 10.5212 83.2579 9.54646C83.9251 8.56592 84.8651 7.81133 86.0777 7.28333C87.2904 6.74952 88.7181 6.48281 90.3601 6.48281ZM90.3601 9.77252C89.6116 9.77252 88.9645 9.90302 88.4191 10.1641C87.8737 10.4252 87.45 10.7994 87.1483 11.2868C86.8524 11.7684 86.7046 12.3429 86.7046 13.0102V13.0275C86.7046 13.6948 86.8524 14.2724 87.1483 14.7598C87.45 15.2471 87.8737 15.6214 88.4191 15.8825C88.9645 16.1435 89.6116 16.274 90.3601 16.274C91.1084 16.274 91.7553 16.1435 92.3007 15.8825C92.846 15.6214 93.2667 15.2471 93.5626 14.7598C93.8643 14.2724 94.0151 13.6948 94.0151 13.0275V13.0102C94.0151 12.3429 93.8643 11.7684 93.5626 11.2868C93.2667 10.7995 92.8433 10.4252 92.2922 10.1641C91.7468 9.90302 91.1027 9.77254 90.3601 9.77252Z" fill="white"/>
<path d="M18.8213 17.406C19.4111 17.6048 20.008 17.785 20.6107 17.9462C20.4925 18.3532 20.3847 18.7248 20.2086 19.1129C20.1854 19.1593 20.1615 19.2059 20.137 19.2518C19.9276 19.6396 19.6736 19.3469 19.5139 19.1171C19.1477 18.5901 18.9468 18.0183 18.8213 17.406Z" fill="white"/>
<path fill-rule="evenodd" clip-rule="evenodd" d="M40.6153 6.74401C42.2398 6.74402 43.612 6.9816 44.7317 7.45732C45.8574 7.9273 46.7106 8.62391 47.2908 9.54646C47.8767 10.4632 48.1696 11.589 48.1696 12.9234V12.9407C48.1696 14.3158 47.8768 15.4765 47.2908 16.4222C46.7048 17.3679 45.8488 18.0845 44.7233 18.5719C43.6035 19.0593 42.234 19.303 40.6153 19.303H33.9359C35.1223 15.2858 35.3074 11.0336 34.2526 6.89725C34.2392 6.84486 34.2253 6.79373 34.2111 6.74401H40.6153ZM37.7777 16.1085H40.3278C41.0415 16.1085 41.651 15.9984 42.1558 15.7779C42.6663 15.5574 43.0552 15.2208 43.322 14.7683C43.5889 14.3099 43.7221 13.7237 43.7221 13.0102V12.9928C43.7221 12.3256 43.5947 11.7656 43.3394 11.313C43.0899 10.8605 42.7126 10.5181 42.2078 10.286C41.7031 10.054 41.0763 9.93804 40.3278 9.93804H37.7777V16.1085Z" fill="white"/>
<path d="M61.4991 9.79877H53.8749V11.6178H60.9593V14.3593H53.8749V16.2478H61.4991V19.3026H49.5061V6.74358H61.4991V9.79877Z" fill="white"/>
<path d="M71.9913 14.629H72.0523L75.7687 6.74358H80.9384V19.3026H77.0044V11.9569H76.8436L73.4099 19.3026H70.6248L67.1912 11.9569H67.0392V19.3026H63.0963V6.74358H68.266L71.9913 14.629Z" fill="white"/>
<path d="M118.124 19.3026H113.755V6.74358H118.124V19.3026Z" fill="white"/>
<path d="M28.8886 17.5597C28.972 17.6218 28.4306 18.6397 28.3514 18.7336C28.1279 18.9981 28.0544 18.9346 27.8565 18.6654C27.7136 18.4066 27.6623 18.2404 27.5695 17.9644C28.0031 17.8441 28.4681 17.7137 28.8886 17.5597Z" fill="white"/>
</svg>
